<svg xmlns="http://www.w3.org/2000/svg" version="1.1" xmlns:xlink="http://www.w3.org/1999/xlink" xmlns:svgjs="http://svgjs.dev/svgjs" width="1000" height="631" viewBox="0 0 1000 631"><g transform="matrix(1,0,0,1,-0.4371134322091166,0.2554789334330394)"><svg viewBox="0 0 391 247" data-background-color="#282634" preserveAspectRatio="xMidYMid meet" height="631" width="1000" xmlns="http://www.w3.org/2000/svg" xmlns:xlink="http://www.w3.org/1999/xlink"><g id="tight-bounds" transform="matrix(1,0,0,1,0.17091135199376595,-0.10000522433907122)"><svg viewBox="0 0 390.65817174515234 247.2" height="247.2" width="390.65817174515234"><g><svg viewBox="0 0 390.65817174515234 247.2" height="247.2" width="390.65817174515234"><g><svg viewBox="0 0 390.65817174515234 247.2" height="247.2" width="390.65817174515234"><g><svg viewBox="0 0 390.65817174515234 247.2" height="247.2" width="390.65817174515234"><g><svg viewBox="0 0 390.65817174515234 247.2" height="247.2" width="390.65817174515234"><g transform="matrix(1,0,0,1,0,0)"><svg width="390.65817174515234" viewBox="2.049999952316284 -35.5 57.04999923706055 36.099998474121094" height="247.2" data-palette-color="#ff4057"><path d="M16.95 0.6L16.95 0.6Q13.6 0.6 10.65-0.7L10.65-0.7Q8.1 0.25 5.18 0.25 2.25 0.25 2.05 0.2L2.05 0.2Q2.05-3.25 4.8-14.73 7.55-26.2 7.55-27.78 7.55-29.35 6.98-30.6 6.4-31.85 5.8-32.5L5.8-32.5 5.25-33.1 5.4-34.25Q6.85-34.6 11.23-35.05 15.6-35.5 18.8-35.5L18.8-35.5Q26.5-35.5 30.23-32.33 33.95-29.15 33.95-22.15L33.95-22.15Q33.95-16.7 31.98-11.58 30-6.45 26-2.93 22 0.6 16.95 0.6ZM19.5-31.95L19.5-31.95Q18.6-31.95 17.55-31.8L17.55-31.8Q17.4-28.9 15-18.48 12.6-8.05 12.05-4.2L12.05-4.2Q12.95-3.75 14.2-3.75L14.2-3.75Q16.85-3.75 18.93-6.15 21-8.55 22.1-12.15L22.1-12.15Q24.25-19.45 24.25-25.4L24.25-25.4Q24.25-29 23.18-30.48 22.1-31.95 19.5-31.95ZM57.7-9.15L57.7-9.15Q57.7-5 53.72-2.2 49.75 0.6 44.5 0.6L44.5 0.6Q40.4 0.6 37.57-1.15 34.75-2.9 34.75-4.5L34.75-4.5Q35.55-6.45 37.8-8.7 40.05-10.95 41.95-11.05L41.95-11.05Q43.2-10.5 44.27-8.33 45.35-6.15 46-3.3L46-3.3Q48.7-3.4 48.7-6.35L48.7-6.35Q48.7-8.3 47.22-11.13 45.75-13.95 44-16.4 42.25-18.85 40.77-21.85 39.3-24.85 39.3-27.1L39.3-27.1Q39.3-30.8 42.7-33.15 46.1-35.5 50.27-35.5 54.45-35.5 56.77-33.7 59.1-31.9 59.1-29.55L59.1-29.55Q59.1-27.6 58.3-26.43 57.5-25.25 57.02-24.63 56.55-24 55.75-23.3L55.75-23.3Q54.25-22 53.45-21.4L53.45-21.4 52.7-20.85Q55.65-17.2 57.15-12.35L57.15-12.35Q57.7-10.6 57.7-9.15ZM55.1-29.2L55.1-29.2Q55.1-31.55 52.1-31.55L52.1-31.55Q50.35-31.55 49.27-30.8 48.2-30.05 48.2-28.93 48.2-27.8 49.12-26.2 50.05-24.6 50.6-23.95L50.6-23.95Q51.8-24.55 53.45-26.15 55.1-27.75 55.1-29.2Z" opacity="1" transform="matrix(1,0,0,1,0,0)" fill="#ff4057" class="undefined-text-0" data-fill-palette-color="primary" id="text-0"></path></svg></g></svg></g></svg></g></svg></g></svg></g><defs></defs></svg><rect width="390.65817174515234" height="247.2" fill="none" stroke="none" visibility="hidden"></rect></g></svg></g></svg>